<?xml version="1.0" standalone="no"?>
<!DOCTYPE svg PUBLIC "-//W3C//DTD SVG 20010904//EN"
 "http://www.w3.org/TR/2001/REC-SVG-20010904/DTD/svg10.dtd">
<svg version="1.0" xmlns="http://www.w3.org/2000/svg"
 width="500.000000pt" height="500.000000pt" viewBox="0 0 500.000000 500.000000"
 preserveAspectRatio="xMidYMid meet">
<metadata>
Created by potrace 1.14, written by Peter Selinger 2001-2017
</metadata>
<g transform="translate(0.000000,500.000000) scale(0.100000,-0.100000)"
fill="#000000" stroke="none">
<path d="M0 2500 l0 -2500 2500 0 2500 0 0 2500 0 2500 -2500 0 -2500 0 0
-2500z m2381 1694 c-41 -7 -77 -12 -79 -9 -6 6 80 23 118 23 21 0 4 -6 -39
-14z m269 -31 c0 -7 -39 17 -46 28 -3 6 5 3 20 -6 14 -10 26 -19 26 -22z m877
-25 c-3 -8 -6 -5 -6 6 -1 11 2 17 5 13 3 -3 4 -12 1 -19z m696 -28 c14 -12 24
-27 21 -34 -3 -8 3 -17 15 -21 26 -8 81 -71 81 -93 0 -10 -5 -23 -12 -30 -9
-9 -5 -16 14 -32 32 -25 78 -114 78 -152 0 -31 -30 -53 -59 -43 -10 3 -32 23
-50 45 -34 42 -62 64 -97 74 -18 6 -21 3 -17 -18 4 -21 2 -24 -16 -19 -11 3
-31 20 -45 38 -14 18 -48 47 -77 66 l-52 33 -23 -28 c-13 -15 -24 -31 -24 -36
0 -5 20 -23 43 -39 52 -36 74 -66 80 -112 l4 -34 1 39 c2 33 -4 45 -43 83 -38
38 -43 49 -38 74 3 16 12 29 20 29 7 0 41 -27 75 -59 33 -33 72 -62 85 -66 13
-3 44 -24 68 -46 81 -74 134 -249 121 -398 -12 -146 -111 -298 -228 -351 -53
-24 -159 -27 -181 -5 -8 8 -17 11 -21 8 -12 -13 -5 15 15 56 11 23 47 74 79
113 76 90 105 170 98 267 -3 36 -13 82 -22 101 -9 19 -13 25 -11 14 4 -16 -5
-31 -35 -58 -45 -41 -60 -44 -67 -16 -5 20 -109 80 -138 80 -10 0 -23 16 -32
39 -9 23 -20 37 -28 35 -7 -3 -20 11 -29 31 -17 35 -17 39 3 97 27 80 26 104
-5 172 -30 66 -28 102 7 128 20 15 30 17 51 9 34 -13 47 -38 55 -101 3 -27 10
-47 15 -44 4 3 5 10 2 16 -8 12 119 143 158 164 15 8 42 15 60 15 33 2 33 2 4
6 -22 4 -26 7 -15 14 25 16 85 10 112 -11z m-716 -72 c-3 -8 -6 -5 -6 6 -1 11
2 17 5 13 3 -3 4 -12 1 -19z m-1362 -51 c-16 -12 -46 -37 -66 -54 -35 -32 -59
-42 -59 -25 0 18 28 43 80 72 64 35 88 39 45 7z m901 -80 c19 -17 25 -29 21
-42 -8 -20 -25 -10 -58 37 -17 23 -18 28 -5 28 8 0 27 -11 42 -23z m950 -42
c-3 -9 -11 -13 -16 -10 -8 5 -7 11 1 21 14 18 24 11 15 -11z m-1657 -36 c17
-6 66 -31 108 -55 43 -24 89 -44 103 -44 14 0 64 19 110 42 184 90 302 47 341
-126 17 -76 -1 -228 -35 -294 -23 -46 -24 -51 -8 -56 24 -8 68 -82 82 -138 9
-34 9 -60 2 -95 -13 -60 -40 -124 -50 -120 -4 1 -23 -15 -42 -36 -44 -50 -152
-125 -158 -108 -2 7 -26 -9 -58 -39 -62 -59 -158 -107 -179 -90 -7 6 -25 8
-39 4 -39 -9 -91 13 -132 59 -21 22 -39 36 -41 30 -2 -6 -33 11 -69 38 -36 27
-69 49 -74 49 -4 0 -31 18 -58 39 -67 53 -105 132 -105 216 0 69 22 121 75
175 l34 34 -27 51 c-91 167 -43 392 96 456 46 21 79 24 124 8z m-441 -101 c7
-7 12 -34 12 -61 l0 -50 -21 27 c-31 39 -81 36 -125 -8 -19 -19 -34 -40 -34
-47 0 -8 9 0 20 18 22 37 48 53 87 53 26 0 33 -8 77 -99 36 -72 47 -106 44
-126 -3 -16 -2 -40 3 -55 8 -21 4 -38 -15 -80 -14 -29 -31 -57 -38 -61 -10 -7
-10 -9 0 -9 7 0 12 -13 12 -29 0 -16 6 -32 13 -35 6 -3 -11 -4 -40 -3 -153 11
-281 243 -230 418 19 62 67 126 111 145 39 17 108 18 124 2z m-958 -18 c0 -5
13 -7 30 -3 36 7 36 5 9 -47 -12 -23 -24 -60 -26 -83 -4 -37 0 -48 34 -93 26
-34 45 -75 57 -120 50 -189 177 -313 346 -340 72 -12 80 -61 18 -116 -50 -45
-90 -58 -175 -58 -53 0 -61 -2 -58 -17 28 -152 28 -154 1 -240 -33 -101 -55
-129 -104 -138 -52 -8 -87 7 -152 69 -31 29 -70 61 -88 70 -31 16 -33 16 -54
-4 -12 -11 -40 -27 -63 -36 -97 -36 -126 9 -53 83 42 43 42 44 10 28 -39 -20
-85 -9 -90 22 -6 38 115 125 223 159 l40 13 -36 0 c-45 1 -79 32 -59 55 16 20
169 79 186 72 7 -3 -4 18 -25 45 -52 69 -78 123 -102 215 -28 109 -16 182 44
262 15 20 30 59 36 98 12 69 29 114 43 114 4 0 8 -4 8 -10z m2378 -29 c15 -11
41 -43 58 -73 25 -46 29 -63 29 -133 0 -70 -4 -89 -33 -150 -53 -113 -138
-185 -217 -185 -33 0 -35 2 -35 33 0 23 3 28 10 17 19 -30 22 2 6 57 -51 173
-51 168 -20 221 16 26 27 50 26 55 -1 4 3 7 10 7 6 0 9 3 5 6 -6 6 2 19 40 60
15 16 33 24 55 24 25 0 29 3 18 10 -26 17 -42 11 -80 -29 l-37 -39 5 52 c2 28
9 57 15 65 29 35 97 37 145 2z m-1831 -373 c-3 -8 -6 -5 -6 6 -1 11 2 17 5 13
3 -3 4 -12 1 -19z m-67 -237 c0 -11 -4 -23 -10 -26 -6 -4 -10 5 -10 19 0 14 5
26 10 26 6 0 10 -9 10 -19z m1747 -7 c-3 -3 -12 -4 -19 -1 -8 3 -5 6 6 6 11 1
17 -2 13 -5z m-1108 -237 c-2 -2 -20 -14 -39 -26 l-35 -23 30 26 c17 14 34 26
39 26 5 0 7 -1 5 -3z m774 -99 c-8 -29 -16 -57 -16 -63 -1 -5 18 -19 42 -31
74 -36 75 -73 1 -62 -27 4 -24 -1 43 -62 163 -151 231 -368 179 -570 l-17 -65
-331 -3 -331 -2 -12 26 c-22 48 -41 148 -41 215 0 137 39 254 123 364 25 33
45 61 44 62 -1 1 -23 -4 -49 -9 -57 -13 -66 -7 -47 29 23 44 84 78 136 75 51
-2 79 10 150 66 46 37 119 81 135 82 4 0 0 -24 -9 -52z m877 -183 c11 -13 10
-14 -4 -9 -9 3 -16 10 -16 15 0 13 6 11 20 -6z m-440 -55 c0 -5 -5 -10 -11
-10 -5 0 -7 5 -4 10 3 6 8 10 11 10 2 0 4 -4 4 -10z m373 -37 c-13 -2 -33 -2
-45 0 -13 2 -3 4 22 4 25 0 35 -2 23 -4z m-189 -65 c-20 -18 -48 -50 -62 -73
-14 -22 -27 -34 -30 -27 -6 19 37 80 76 107 51 35 60 31 16 -7z m-575 -765
c49 -31 97 -98 107 -151 6 -31 5 -33 -16 -30 -15 2 -26 14 -35 42 -46 134
-231 180 -340 85 -60 -53 -71 -151 -22 -197 31 -29 75 -46 202 -77 133 -33
185 -56 225 -101 37 -42 44 -68 38 -144 -5 -76 -41 -123 -123 -165 -51 -26
-69 -29 -144 -29 -71 0 -96 4 -141 25 -76 35 -115 71 -144 132 -34 70 -37 101
-11 105 16 2 24 -8 38 -48 38 -106 115 -160 238 -168 119 -7 192 25 230 101
32 62 22 121 -29 168 -41 38 -75 52 -232 89 -164 39 -220 87 -220 189 1 123
74 198 210 214 49 5 124 -13 169 -40z m-735 20 c62 -23 125 -78 158 -139 31
-58 45 -113 29 -115 -6 -1 -16 -2 -22 -3 -6 -1 -18 22 -27 49 -23 67 -66 118
-127 152 -44 25 -61 28 -136 28 -75 0 -92 -4 -144 -30 -112 -57 -168 -167
-167 -325 0 -162 59 -268 180 -327 64 -31 189 -43 259 -24 96 26 177 107 206
206 10 37 19 50 33 50 44 0 2 -125 -68 -201 -82 -89 -220 -130 -351 -104 -127
25 -209 86 -264 197 -35 70 -38 84 -41 179 -6 164 37 274 140 357 80 64 237
87 342 50z m-1164 -43 l0 -40 -195 0 -195 0 0 -130 0 -130 163 -2 162 -3 3
-37 3 -38 -165 0 -166 0 0 -170 0 -170 -45 0 -45 0 0 380 0 380 240 0 240 0 0
-40z m630 0 l0 -40 -125 0 -125 0 0 -340 0 -340 -44 0 -44 0 -7 63 c-4 34 -5
96 -4 137 2 41 3 166 1 278 l-2 202 -125 0 -125 0 0 40 0 40 300 0 300 0 0
-40z m2167 24 c92 -31 161 -98 170 -163 4 -33 2 -41 -16 -50 -31 -17 -54 -1
-111 79 -60 81 -109 110 -189 110 -160 0 -273 -184 -232 -380 45 -217 217
-339 396 -280 64 21 65 22 65 136 l0 104 -35 17 c-37 18 -43 28 -22 36 17 6
217 -4 217 -12 -1 -3 -15 -15 -33 -26 l-32 -20 -3 -107 c-3 -104 -3 -107 -32
-132 -55 -45 -135 -69 -240 -70 -83 -1 -102 2 -153 26 -73 35 -155 116 -193
193 -27 56 -29 68 -29 175 0 110 1 118 33 182 39 80 111 148 185 177 66 25
187 28 254 5z m890 -59 c16 -80 16 -85 -6 -85 -11 0 -23 12 -31 30 -30 72 -43
80 -136 80 l-84 0 0 -334 c0 -329 0 -335 21 -350 36 -24 13 -36 -72 -36 -60 0
-79 3 -79 14 0 7 7 19 15 26 13 11 15 62 15 346 l0 334 -79 0 c-89 0 -102 -7
-128 -71 -10 -27 -21 -39 -35 -39 -21 0 -21 0 -1 117 l5 32 77 3 c42 2 173 1
291 -2 l214 -5 13 -60z m-1492 -181 c19 -20 16 -43 -7 -58 -38 -23 -78 35 -42
61 23 17 29 16 49 -3z m10 -464 c14 -43 -44 -67 -68 -29 -16 26 -1 49 32 49
21 0 32 -6 36 -20z"/>
<path d="M4090 3997 c0 -2 15 -16 33 -33 l32 -29 -29 33 c-28 30 -36 37 -36
29z"/>
<path d="M4228 3943 c6 -2 18 -2 25 0 6 3 1 5 -13 5 -14 0 -19 -2 -12 -5z"/>
<path d="M3951 3725 c0 -17 -8 -40 -16 -53 l-16 -22 34 23 c25 17 31 24 21 32
-7 6 -14 19 -17 30 -3 14 -5 10 -6 -10z"/>
<path d="M4076 3633 c9 -38 14 -42 14 -10 0 14 -5 29 -10 32 -7 4 -8 -3 -4
-22z"/>
<path d="M2207 3740 l-42 -41 43 22 c45 22 97 28 145 16 20 -6 27 -4 27 7 0
22 -33 36 -85 36 -40 0 -51 -5 -88 -40z"/>
<path d="M2752 3764 c-32 -22 -20 -32 35 -27 32 3 62 -1 87 -11 47 -20 55 -15
24 14 -44 42 -106 52 -146 24z"/>
<path d="M2248 3579 l-33 -31 33 26 c45 35 102 35 151 0 l36 -26 -33 31 c-26
25 -41 31 -77 31 -36 0 -51 -6 -77 -31z"/>
<path d="M2712 3594 c-12 -8 -27 -25 -32 -37 -9 -19 -9 -20 2 -7 39 46 95 62
141 39 21 -10 21 -10 3 5 -25 20 -85 20 -114 0z"/>
<path d="M2865 3549 c9 -17 20 -49 25 -72 7 -35 8 -37 9 -12 1 29 -32 115 -44
115 -3 0 2 -14 10 -31z"/>
<path d="M2284 3530 c-54 -21 -72 -105 -33 -154 29 -36 99 -37 134 -1 45 44
28 123 -32 154 -25 13 -40 13 -69 1z m34 -54 c5 -23 -23 -47 -44 -39 -15 5
-19 44 -7 57 13 13 48 1 51 -18z"/>
<path d="M2719 3525 c-53 -29 -63 -127 -16 -160 28 -20 86 -19 115 1 51 35 48
112 -5 154 -30 23 -58 25 -94 5z m39 -56 c4 -30 -22 -46 -44 -28 -15 12 -19
41 -7 53 16 16 48 1 51 -25z"/>
<path d="M2652 3490 c0 -14 2 -19 5 -12 2 6 2 18 0 25 -3 6 -5 1 -5 -13z"/>
<path d="M2442 3460 c0 -19 2 -27 5 -17 2 9 2 25 0 35 -3 9 -5 1 -5 -18z"/>
<path d="M2881 3414 c0 -11 3 -14 6 -6 3 7 2 16 -1 19 -3 4 -6 -2 -5 -13z"/>
<path d="M2538 3353 c12 -2 32 -2 45 0 12 2 2 4 -23 4 -25 0 -35 -2 -22 -4z"/>
<path d="M2453 3330 c-18 -11 -33 -23 -33 -26 0 -4 6 -2 13 4 7 7 29 18 48 26
19 9 27 15 19 16 -8 0 -30 -9 -47 -20z"/>
<path d="M2660 3336 c0 -3 9 -10 20 -16 11 -6 20 -8 20 -6 0 3 -9 10 -20 16
-11 6 -20 8 -20 6z"/>
<path d="M2476 3261 c5 -5 20 -12 34 -16 22 -7 23 -6 11 9 -7 9 -23 16 -34 16
-13 0 -17 -4 -11 -9z"/>
<path d="M2605 3250 c-21 -23 -19 -24 24 -9 17 6 31 15 31 20 0 17 -37 9 -55
-11z"/>
<path d="M2235 3177 c-17 -13 -17 -14 4 -20 13 -3 19 -1 15 5 -4 6 0 14 7 19
8 5 9 9 3 9 -5 0 -18 -6 -29 -13z"/>
<path d="M2863 3173 c9 -2 17 -8 17 -13 0 -4 7 -10 15 -14 19 -7 19 -1 -1 18
-8 9 -23 15 -32 15 -15 -1 -15 -2 1 -6z"/>
<path d="M2277 3123 c56 -157 163 -294 225 -293 7 1 0 8 -17 17 -16 8 -42 27
-57 41 -31 29 -26 50 19 79 25 17 133 35 133 23 0 -4 13 -5 28 -2 40 5 100
-22 113 -52 14 -29 3 -48 -46 -78 -21 -13 -25 -18 -12 -18 32 0 107 91 153
186 24 50 44 94 44 98 0 4 -17 -7 -38 -23 -20 -17 -66 -43 -102 -58 -54 -22
-80 -27 -150 -27 -100 0 -165 23 -247 85 -35 26 -50 33 -46 22z"/>
<path d="M2543 2823 c15 -2 37 -2 50 0 12 2 0 4 -28 4 -27 0 -38 -2 -22 -4z"/>
<path d="M2533 2733 c15 -2 37 -2 50 0 12 2 0 4 -28 4 -27 0 -38 -2 -22 -4z"/>
<path d="M1873 3505 c-3 -9 -3 -18 -1 -21 3 -3 8 4 11 16 6 23 -1 27 -10 5z"/>
<path d="M1861 3432 c-1 -47 20 -102 47 -124 9 -7 6 2 -7 21 -14 19 -27 56
-31 90 -7 54 -7 54 -9 13z"/>
<path d="M1838 3238 c5 -5 16 -8 23 -6 8 3 3 7 -10 11 -17 4 -21 3 -13 -5z"/>
<path d="M1097 2987 c-50 -52 -64 -72 -59 -86 3 -8 14 6 26 30 13 24 37 54 56
67 18 12 27 22 20 22 -6 0 -26 -15 -43 -33z"/>
<path d="M1195 3007 c14 -11 17 -21 12 -48 -5 -24 -4 -30 3 -19 20 31 5 80
-24 80 -5 0 -2 -6 9 -13z"/>
<path d="M960 2967 c0 -2 15 -14 33 -27 20 -15 27 -17 18 -6 -13 16 -51 41
-51 33z"/>
<path d="M1171 2886 c-7 -8 -8 -17 -3 -20 6 -3 12 3 15 14 6 24 4 25 -12 6z"/>
<path d="M1033 2805 c0 -27 2 -38 4 -22 2 15 2 37 0 50 -2 12 -4 0 -4 -28z"/>
<path d="M756 2715 c-24 -18 -21 -18 29 0 32 11 35 14 15 14 -14 0 -34 -6 -44
-14z"/>
<path d="M1005 2680 c-25 -10 -50 -38 -41 -47 3 -3 6 -1 6 5 0 19 60 44 89 37
14 -3 35 -8 46 -11 15 -4 14 -1 -5 10 -28 17 -64 19 -95 6z"/>
<path d="M3308 3578 c13 -20 26 -62 31 -95 7 -51 9 -53 10 -18 1 56 -15 108
-41 131 l-22 19 22 -37z"/>
<path d="M3187 3490 c4 -8 11 -40 14 -70 l6 -55 2 51 c0 33 -4 57 -15 70 -8
10 -12 12 -7 4z"/>
<path d="M3331 3404 c0 -11 3 -14 6 -6 3 7 2 16 -1 19 -3 4 -6 -2 -5 -13z"/>
<path d="M3177 3328 c-10 -17 -16 -33 -13 -35 2 -3 12 9 21 27 21 41 15 48 -8
8z"/>
</g>
</svg>
